# xmcd CD database file
# Copyright (C) 1993-1998 Ti Kan
#
# Track frame offsets:
# 150
# 12530
# 29055
# 42355
# 54592
# 67030
# 82655
# 95780
# 109205
# 121355
# 132405
# 146505
#
# Disc length: 2133 seconds
#
# Revision: 0
# Processed by: cddbd v1.4b41PL1 Copyright (c) Steve Scherf et al.
# Submitted via: inCDius 1.1b8
#
DISCID=af08530c
DTITLE=Johnson Mountain Boys - Let The Whole World Talk
DYEAR=1900
DGENRE=
TTITLE0=Let The Whole World Talk
TTITLE1=Maury River Blues
TTITLE2=Memories Cover Everything I Own
TTITLE3=He Said If I Be Lifted Up
TTITLE4=Goodbye To The Blues
TTITLE5=Virginia Waltz
TTITLE6=Maybe You Will Change Your Mind
TTITLE7=Memories That We Shared
TTITLE8=A Sweater Love Than Yours I'll Never Know
TTITLE9=Shouting In The Air
TTITLE10=Beneath The Old Southern Skies
TTITLE11=Newton Grove
EXTD=Rounder\nCD-0225
EXTT0=
EXTT1=
EXTT2=
EXTT3=
EXTT4=
EXTT5=
EXTT6=
EXTT7=
EXTT8=
EXTT9=
EXTT10=
EXTT11=
PLAYORDER=
